<svg width="623" height="376" viewBox="0 0 623 376" fill="none" xmlns="http://www.w3.org/2000/svg">
<rect x="163" y="39" width="298" height="298" rx="37" fill="#305926"/>
<mask id="mask0_19_36" style="mask-type:alpha" maskUnits="userSpaceOnUse" x="163" y="39" width="298" height="298">
<rect x="163" y="39" width="298" height="298" rx="37" fill="#315828"/>
</mask>
<g mask="url(#mask0_19_36)">
<rect x="102.452" y="269.785" width="414.332" height="175.571" transform="rotate(-44.2 102.452 269.785)" fill="#7D7D7D"/>
</g>
<path d="M291 177C291 171.477 295.477 167 301 167H322C327.523 167 332 171.477 332 177V198C332 203.523 327.523 208 322 208H301C295.477 208 291 203.523 291 198V177Z" fill="#F1B827"/>
<path d="M369 102C369 96.4772 373.477 92 379 92H400C405.523 92 410 96.4772 410 102V123C410 128.523 405.523 133 400 133H379C373.477 133 369 128.523 369 123V102Z" fill="#F1B827"/>
<path d="M215 260C215 254.477 219.477 250 225 250H246C251.523 250 256 254.477 256 260V281C256 286.523 251.523 291 246 291H225C219.477 291 215 286.523 215 281V260Z" fill="#F1B827"/>
</svg>
